<svg xmlns:xlink="http://www.w3.org/1999/xlink" xmlns="http://www.w3.org/2000/svg" width="91.911804px" height="29.999998px" viewBox="0 0 91.911804 29.999998"><defs><path d="M0 0L91.9118 0L91.9118 30L0 30L0 0Z" id="path_1"></path><clipPath id="mask_1"><use xlink:href="#path_1"></use></clipPath></defs><g id="google-2015"><path d="M0 0L91.9118 0L91.9118 30L0 30L0 0Z" id="Background" fill="#FFFFFF" fill-opacity="0" fill-rule="evenodd" stroke="none"></path><g clip-path="url(#mask_1)"><path d="M11.3193 0L12.1367 0C14.9742 0.0616967 17.7655 1.20308 19.7703 3.22365C19.03 3.97943 18.2744 4.70437 17.5496 5.46015C16.4238 4.44216 15.0667 3.65553 13.5863 3.37789C11.3964 2.91517 9.03696 3.33162 7.2018 4.58098C5.19702 5.89203 3.83993 8.11311 3.54692 10.4884C3.22307 12.8329 3.88619 15.3008 5.41292 17.1208C6.87795 18.8946 9.11406 20.0051 11.4273 20.0823C13.5863 20.2057 15.8378 19.5424 17.4108 18.0308C18.6445 16.9666 19.2151 15.347 19.4002 13.7738C16.8402 13.7738 14.2802 13.7892 11.7203 13.7738L11.7203 10.5964L22.4999 10.5964C23.055 14.0051 22.2531 17.8458 19.6623 20.2828C17.9351 22.0103 15.5448 23.0283 13.1082 23.2288C10.7487 23.4602 8.31215 23.0129 6.21483 21.8715C3.70114 20.5296 1.69635 18.2622 0.709377 15.5938C-0.215909 13.1414 -0.231331 10.365 0.63227 7.89717C1.41876 5.64524 2.93006 3.65553 4.87317 2.26735C6.73916 0.894602 9.00611 0.138817 11.3193 0L11.3193 0Z" id="Shape" fill="#3780FF" stroke="none"></path><path d="M73.1593 0.802063L76.4595 0.802063L76.4595 22.8278C75.3646 22.8278 74.2542 22.8432 73.1593 22.8123C73.1747 15.4859 73.1593 8.14397 73.1593 0.802063L73.1593 0.802063Z" id="Shape" fill="#38B137" stroke="none"></path><path d="M29.8405 8.43703C31.8761 8.05142 34.0814 8.4833 35.7623 9.70181C37.289 10.7815 38.3531 12.4782 38.677 14.3291C39.0934 16.473 38.569 18.8175 37.1811 20.5141C35.6852 22.4113 33.2332 23.4293 30.8429 23.2751C28.653 23.1517 26.5249 22.0566 25.2295 20.2674C23.7644 18.2931 23.4098 15.5784 24.2117 13.2648C25.0136 10.7815 27.2805 8.88433 29.8405 8.43702M30.3031 11.3676C29.4704 11.5836 28.6993 12.0617 28.1441 12.7404C26.6483 14.5296 26.7408 17.4447 28.3909 19.1105C29.3316 20.0668 30.7504 20.5141 32.0612 20.2519C33.2795 20.036 34.3436 19.2185 34.9296 18.1388C35.9474 16.3033 35.6544 13.7738 34.0968 12.3393C33.0944 11.4139 31.6294 11.0283 30.3031 11.3676L30.3031 11.3676Z" id="Shape" fill="#FA3913" fill-rule="evenodd" stroke="none"></path><path d="M46.1872 8.43702C48.5158 7.98972 51.0604 8.63753 52.803 10.2725C55.6405 12.8175 55.949 17.5835 53.5278 20.5141C52.0628 22.365 49.6879 23.383 47.3438 23.2751C45.1077 23.2134 42.9024 22.1028 41.5762 20.2673C40.0803 18.2468 39.7565 15.4704 40.6046 13.1105C41.4528 10.7044 43.6735 8.86889 46.1872 8.43701M46.6499 11.3676C45.8171 11.5835 45.046 12.0617 44.4909 12.7249C43.0104 14.4833 43.0721 17.3522 44.6605 19.0334C45.6012 20.036 47.0662 20.5295 48.4233 20.2519C49.6262 20.0206 50.7057 19.2185 51.2917 18.1388C52.2941 16.2879 52.0011 13.7583 50.4281 12.3239C49.4257 11.3984 47.9607 11.0283 46.6499 11.3676L46.6499 11.3676Z" id="Shape" fill="#FCBD06" fill-rule="evenodd" stroke="none"></path><path d="M60.0511 9.33162C61.8245 8.22108 64.184 7.9126 66.0963 8.8689C66.6977 9.13111 67.1912 9.57841 67.6693 10.0257C67.6847 9.60926 67.6693 9.17738 67.6847 8.74551C68.7179 8.76093 69.7512 8.74551 70.7998 8.76093L70.7998 22.365C70.7844 24.4165 70.2601 26.5913 68.7796 28.0874C67.1604 29.7378 64.6775 30.2468 62.4414 29.9075C60.0511 29.5527 57.9692 27.8098 57.0439 25.6041C57.9692 25.1568 58.9407 24.8021 59.8969 24.3856C60.4366 25.6504 61.5315 26.7301 62.9041 26.9769C64.2766 27.2237 65.865 26.8843 66.7594 25.7429C67.7155 24.5707 67.7155 22.9666 67.6693 21.5321C66.9599 22.2262 66.1426 22.8432 65.1556 23.0746C63.012 23.6761 60.6525 22.9357 59.0024 21.4859C57.3369 20.036 56.3499 17.7995 56.4425 15.5784C56.4887 13.0643 57.9075 10.6427 60.0511 9.33163M63.2433 11.3059C62.3026 11.4602 61.4236 11.9846 60.8222 12.7095C59.3725 14.437 59.3725 17.1979 60.8376 18.8946C61.6703 19.8972 63.012 20.4524 64.3074 20.3136C65.5257 20.1902 66.6515 19.419 67.2529 18.3548C68.2707 16.5501 68.1011 14.0977 66.7286 12.5244C65.8804 11.5527 64.5233 11.0745 63.2433 11.3059L63.2433 11.3059Z" id="Shape" fill="#3780FF" fill-rule="evenodd" stroke="none"></path><path d="M80.4228 10.1183C82.2734 8.39075 85.1263 7.80463 87.5012 8.71466C89.7528 9.56299 91.187 11.7069 91.9118 13.9126C88.5653 15.3008 85.2343 16.6735 81.8878 18.0617C82.3505 18.9409 83.0599 19.7429 84.016 20.0668C85.3576 20.545 86.9615 20.3753 88.0872 19.4807C88.5345 19.1414 88.8892 18.6941 89.2284 18.2622C90.0766 18.8329 90.9248 19.3882 91.773 19.9589C90.5701 21.7635 88.5499 23.0283 86.3755 23.2288C83.9697 23.5219 81.4098 22.5964 79.8522 20.7147C77.2922 17.7532 77.539 12.7866 80.4228 10.1183M82.0729 12.9717C81.5486 13.7275 81.3327 14.653 81.3481 15.563C83.5842 14.6375 85.8203 13.7121 88.0564 12.7712C87.6863 11.9075 86.7918 11.383 85.882 11.2442C84.4169 10.982 82.8902 11.7687 82.0729 12.9717L82.0729 12.9717Z" id="Shape" fill="#FA3913" fill-rule="evenodd" stroke="none"></path></g></g></svg>